<svg width="373" height="396" viewBox="0 0 373 396" fill="none" xmlns="http://www.w3.org/2000/svg">
<path d="M367.496 328.668C370.434 334.764 372.082 341.593 372.082 348.804C372.082 374.455 351.285 395.252 325.634 395.252C306.8 395.252 290.578 384.035 283.296 367.917C280.649 362.088 279.185 355.608 279.185 348.804C279.185 323.154 299.984 302.355 325.634 302.355C344.074 302.355 359.995 313.097 367.496 328.668Z" fill="white"/>
<path d="M367.496 328.668C359.995 313.097 344.074 302.355 325.634 302.355C299.984 302.355 279.185 323.154 279.185 348.804C279.185 355.609 280.649 362.088 283.296 367.917H283.285L245.767 286.621L326.388 239.58L367.507 328.668H367.496Z" fill="white"/>
<path d="M4.74609 329.365L143.94 27.7771H143.951C141.305 33.6061 139.841 40.0858 139.841 46.8907C139.841 53.822 141.362 60.4074 144.103 66.3296H144.09L186.289 157.763L150.943 234.356L23.5691 308.65V308.661C15.3602 313.444 8.75264 320.679 4.75716 329.365H4.74609Z" fill="white"/>
<path d="M325.634 139.786C317.11 139.786 309.134 142.086 302.259 146.092V146.081L287.279 154.824L206.646 201.854L150.943 234.356L23.5691 308.65V308.661C15.3602 313.444 8.75263 320.679 4.75715 329.365C2.01716 335.287 0.496338 341.871 0.496338 348.804C0.496338 374.455 21.2934 395.252 46.945 395.252C55.4681 395.252 63.4449 392.953 70.3193 388.946V388.959L245.767 286.621L326.389 239.58L348.754 226.54V226.529C362.7 218.516 372.082 203.468 372.082 186.235C372.082 160.583 351.285 139.786 325.634 139.786" fill="white"/>
<path fill-rule="evenodd" clip-rule="evenodd" d="M23.6578 308.598L161.741 210.956L150.943 234.356L23.6578 308.598Z" fill="#939393" fill-opacity="0.5"/>
<path d="M228.488 27.4518H228.476C221.126 11.5077 204.997 0.442039 186.289 0.442039C167.455 0.442039 151.232 11.6594 143.951 27.7771C141.305 33.6061 139.841 40.0857 139.841 46.8907C139.841 53.822 141.362 60.4074 144.103 66.3295H144.09L186.289 157.763L206.646 201.854L287.279 154.824L228.488 27.4518" fill="white"/>
<path fill-rule="evenodd" clip-rule="evenodd" d="M287.189 154.876L206.646 201.854L198.762 184.778L275.921 130.218L287.279 154.824L287.189 154.876Z" fill="#939393" fill-opacity="0.5"/>
</svg>
